<?xml version="1.0" ?><!DOCTYPE svg  PUBLIC '-//W3C//DTD SVG 1.1//EN'  'http://www.w3.org/Graphics/SVG/1.1/DTD/svg11.dtd'><!-- Uploaded to: SVG Repo, www.svgrepo.com, Generator: SVG Repo Mixer Tools -->
<svg fill="#000000" width="800px" height="800px" viewBox="0 0 32 32" style="fill-rule:evenodd;clip-rule:evenodd;stroke-linejoin:round;stroke-miterlimit:2;" version="1.1" xml:space="preserve" xmlns="http://www.w3.org/2000/svg" xmlns:serif="http://www.serif.com/" xmlns:xlink="http://www.w3.org/1999/xlink"><path d="M9.966,9.784l0.006,1.192c0.002,0.262 -0.102,0.514 -0.287,0.7c-0.185,0.186 -0.436,0.291 -0.699,0.291l-0.002,-0l0,-0c-0.796,-0 -1.559,0.316 -2.122,0.878c-0.564,0.563 -0.88,1.326 -0.88,2.122c-0,3.076 -0,8.936 -0,12.013c-0,0.796 0.316,1.559 0.88,2.122c0.563,0.562 1.326,0.878 2.122,0.878c3.464,-0 10.532,-0 13.995,-0c0.796,-0 1.56,-0.316 2.123,-0.878c0.563,-0.563 0.88,-1.326 0.88,-2.122c-0,-3.077 -0,-8.937 -0,-12.013c-0,-0.796 -0.317,-1.559 -0.88,-2.122c-0.563,-0.562 -1.327,-0.878 -2.123,-0.878l-0.001,-0c-0.55,-0 -0.997,-0.446 -0.998,-0.996l-0.002,-1.193c0.412,-0.148 0.792,-0.386 1.108,-0.702c0.562,-0.563 0.878,-1.326 0.878,-2.121l0,-1.974c0,-0.796 -0.316,-1.559 -0.878,-2.122c-0.563,-0.562 -1.326,-0.878 -2.122,-0.878l-10,-0c-0.795,-0 -1.558,0.316 -2.121,0.878c-0.563,0.563 -0.879,1.326 -0.879,2.122c0,0.635 0,1.338 0,1.974c0,0.795 0.316,1.558 0.879,2.121c0.32,0.32 0.704,0.56 1.123,0.708Zm13.012,4.183l0.001,-0c0.266,-0 0.521,0.105 0.709,0.293c0.188,0.188 0.294,0.442 0.294,0.707l-0,12.013c-0,0.265 -0.106,0.519 -0.294,0.706c-0.188,0.188 -0.443,0.294 -0.709,0.294l-13.995,-0c-0.266,-0 -0.521,-0.106 -0.709,-0.294c-0.188,-0.187 -0.293,-0.441 -0.293,-0.706l-0,-12.013c-0,-0.265 0.105,-0.519 0.293,-0.707c0.188,-0.188 0.443,-0.293 0.709,-0.293l0.002,-0c0.795,-0 1.557,-0.317 2.117,-0.88c0.56,-0.564 0.873,-1.327 0.869,-2.122l-0.005,-0.985c0,-0 8.011,-0 8.011,-0c-0,-0 0.002,0.995 0.002,0.995c0.003,1.653 1.345,2.992 2.998,2.992Zm-1.014,-8.986l0,1.974c0,0.265 -0.105,0.519 -0.293,0.707c-0.187,0.187 -0.441,0.293 -0.707,0.293c0,-0 -10,-0 -10,-0c-0.265,-0 -0.519,-0.106 -0.707,-0.293c-0.187,-0.188 -0.293,-0.442 -0.293,-0.707l0,-1.974c0,-0.266 0.106,-0.52 0.293,-0.707c0.188,-0.188 0.442,-0.293 0.707,-0.293c0,-0 10,-0 10,-0c0.266,-0 0.52,0.105 0.707,0.293c0.188,0.187 0.293,0.441 0.293,0.707Z"/><path d="M14.982,17.98l-2.012,-0c-0.552,-0 -1,0.448 -1,1c0,0.552 0.448,1 1,1l2.012,-0l-0,2.011c-0,0.552 0.448,1 1,1c0.552,0 1,-0.448 1,-1l-0,-2.011l2.011,-0c0.552,-0 1,-0.448 1,-1c0,-0.552 -0.448,-1 -1,-1l-2.011,-0l-0,-2.012c-0,-0.552 -0.448,-1 -1,-1c-0.552,0 -1,0.448 -1,1l-0,2.012Z"/></svg>