<?xml version="1.0" encoding="utf-8"?>

<!DOCTYPE svg PUBLIC "-//W3C//DTD SVG 1.1//EN" "http://www.w3.org/Graphics/SVG/1.1/DTD/svg11.dtd">
<!-- Uploaded to: SVG Repo, www.svgrepo.com, Generator: SVG Repo Mixer Tools -->
<svg version="1.1" id="_x32_" xmlns="http://www.w3.org/2000/svg" xmlns:xlink="http://www.w3.org/1999/xlink" 
	 width="800px" height="800px" viewBox="0 0 512 512"  xml:space="preserve">
<style type="text/css">
<![CDATA[
	.st0{fill:#000000;}
]]>
</style>
<g>
	<path class="st0" d="M214.348,393.979c-1.047,1.047-2.172,1.781-3.406,2.281c-1.859,0.75-3.938,0.953-5.906,0.563
		c-1.984-0.391-3.781-1.281-5.344-2.844l-76.594-76.594c-1.047-1.047-1.781-2.188-2.281-3.422c-0.75-1.859-0.953-3.938-0.563-5.906
		s1.297-3.781,2.844-5.328l158.297-158.297l-23.672-23.656L99.441,279.057c-4.25,4.25-7.484,9.219-9.625,14.516
		c-3.219,7.938-4.016,16.563-2.422,24.844c1.594,8.266,5.656,16.266,12.047,22.625l76.594,76.594c4.234,4.25,9.219,7.5,14.5,9.625
		c7.938,3.219,16.563,4.016,24.844,2.422s16.266-5.656,22.641-12.047l158.297-158.281l-23.672-23.656L214.348,393.979z"/>
	<path class="st0" d="M89.004,399.9c-5.281,5.297-6.313,12.828-2.313,16.828l13.656,13.656c4,4.016,11.531,2.969,16.828-2.313
		l25.625-25.625l-28.156-28.172L89.004,399.9z"/>
	<polygon class="st0" points="0.004,501.869 25.348,506.932 90.691,441.588 75.488,426.385 	"/>
	<path class="st0" d="M311.52,57.963c-11.656-11.672-30.578-11.672-42.25,0s-11.672,30.578,0,42.25l147.594,147.594
		c11.672,11.672,30.594,11.672,42.25,0c11.672-11.672,11.672-30.594,0-42.25L311.52,57.963z"/>
	<path class="st0" d="M503.254,91.947l-78.141-78.125c-11.656-11.672-30.578-11.672-42.234,0c-11.672,11.672-11.672,30.594,0,42.25
		l8.078,8.078l-23.672,23.672l23.672,23.656l23.656-23.656l14.656,14.641l-23.672,23.656l23.672,23.656l23.641-23.656l8.094,8.094
		c11.672,11.656,30.594,11.656,42.25,0C514.91,122.541,514.91,103.619,503.254,91.947z"/>
	
		<rect x="280.451" y="243.316" transform="matrix(0.7071 0.7071 -0.7071 0.7071 265.1201 -139.0839)" class="st0" width="39.996" height="14.341"/>
	<polygon class="st0" points="267.895,311.322 278.035,301.182 249.738,272.9 239.598,283.041 	"/>
	
		<rect x="211.708" y="312.032" transform="matrix(-0.7071 0.7071 -0.7071 -0.7071 608.4381 412.0587)" class="st0" width="14.341" height="40.018"/>
</g>
</svg>