<?xml version="1.0" encoding="iso-8859-1"?>
<!-- Uploaded to: SVG Repo, www.svgrepo.com, Generator: SVG Repo Mixer Tools -->
<svg fill="#000000" version="1.1" id="Layer_1" xmlns="http://www.w3.org/2000/svg" xmlns:xlink="http://www.w3.org/1999/xlink" 
	 viewBox="0 0 229.939 229.939" xml:space="preserve">
<g>
	<g>
		<g>
			<path d="M226.38,123.522L106.42,3.563c-2.293-2.292-5.337-3.557-8.576-3.563c-0.008,0-0.014,0-0.022,0
				c-3.236,0-6.276,1.259-8.56,3.545L3.552,89.256c-2.296,2.297-3.557,5.347-3.549,8.588c0.006,3.236,1.274,6.28,3.567,8.572v-0.002
				l119.958,119.958c2.293,2.293,5.339,3.559,8.578,3.567c0.008,0,0.014,0,0.022,0c3.236,0,6.276-1.259,8.56-3.547l85.713-85.709
				C231.123,135.951,231.113,128.253,226.38,123.522z M220.684,134.969l-85.713,85.709c-0.758,0.762-1.77,1.18-2.847,1.18
				c-0.002,0-0.004,0-0.006,0c-1.085-0.004-2.105-0.43-2.876-1.2L9.283,100.7v-0.002c-0.771-0.769-1.198-1.789-1.2-2.872
				c-0.002-1.077,0.416-2.091,1.182-2.857l85.713-85.71c0.758-0.76,1.769-1.178,2.846-1.178c0.002,0,0.004,0,0.006,0
				c1.085,0.002,2.107,0.426,2.876,1.196l119.959,119.959C222.251,130.822,222.258,133.394,220.684,134.969z"/>
			
				<rect x="36.162" y="110.994" transform="matrix(-0.7071 -0.7071 0.7071 -0.7071 115.0447 277.7206)" width="157.756" height="8.08"/>
			<path d="M87.832,110.683c-3.433-3.435-7.998-5.327-12.855-5.327s-9.422,1.892-12.857,5.327s-5.325,8.002-5.325,12.855
				c0,4.857,1.89,9.422,5.325,12.855c3.435,3.437,8,5.327,12.857,5.327c4.855,0,9.42-1.89,12.855-5.327
				c3.435-3.433,5.327-7.998,5.327-12.855C93.159,118.685,91.267,114.118,87.832,110.683z M82.119,130.68
				c-3.817,3.823-10.468,3.815-14.285,0c-1.908-1.906-2.957-4.443-2.957-7.142c0-2.695,1.05-5.232,2.957-7.142
				c1.91-1.908,4.445-2.959,7.144-2.959c2.697,0,5.234,1.052,7.142,2.959c1.908,1.91,2.959,4.447,2.959,7.142
				C85.078,126.237,84.026,128.77,82.119,130.68z"/>
			<path d="M56.407,79.255c-7.091-7.091-18.626-7.091-25.712,0c-3.435,3.433-5.327,8-5.327,12.855c0,4.857,1.892,9.424,5.327,12.857
				c3.543,3.545,8.199,5.317,12.855,5.317s9.312-1.774,12.857-5.317C63.495,97.879,63.495,86.344,56.407,79.255z M50.693,99.254
				c-3.936,3.936-10.345,3.94-14.285,0c-1.908-1.908-2.959-4.445-2.959-7.144c0-2.697,1.052-5.234,2.959-7.142
				c1.969-1.969,4.555-2.954,7.142-2.954c2.587,0,5.175,0.985,7.144,2.954C54.631,88.907,54.631,95.316,50.693,99.254z"/>
			<path d="M119.26,142.111c-3.433-3.437-8-5.327-12.855-5.327c-4.857,0-9.424,1.89-12.857,5.327
				c-3.435,3.433-5.325,7.998-5.325,12.855s1.89,9.422,5.325,12.855c3.433,3.437,8,5.327,12.857,5.327
				c4.855,0,9.42-1.89,12.855-5.327c3.435-3.433,5.325-7.998,5.325-12.855C124.584,150.109,122.694,145.543,119.26,142.111z
				 M113.546,162.108c-3.817,3.823-10.472,3.815-14.285,0c-1.908-1.906-2.957-4.443-2.957-7.142c0-2.699,1.05-5.236,2.957-7.142
				c1.908-1.91,4.445-2.959,7.144-2.959c2.697,0,5.234,1.05,7.142,2.959c1.908,1.906,2.957,4.443,2.957,7.142
				C116.504,157.665,115.454,160.202,113.546,162.108z"/>
			<path d="M137.83,168.211c-4.857,0-9.422,1.89-12.855,5.327c-3.435,3.433-5.327,7.998-5.327,12.855s1.892,9.422,5.327,12.855
				c3.433,3.437,7.998,5.327,12.855,5.327s9.422-1.89,12.857-5.327c3.435-3.433,5.325-7.998,5.325-12.855s-1.89-9.422-5.325-12.855
				C147.252,170.101,142.687,168.211,137.83,168.211z M144.974,193.535c-3.817,3.815-10.468,3.823-14.285,0
				c-1.908-1.91-2.959-4.443-2.959-7.142c0-2.699,1.052-5.232,2.959-7.142c1.908-1.91,4.445-2.959,7.142-2.959
				c2.699,0,5.234,1.05,7.144,2.959c1.908,1.906,2.957,4.443,2.957,7.142C147.932,189.092,146.881,191.629,144.974,193.535z"/>
			<path d="M92.119,61.717c4.656,0,9.312-1.774,12.855-5.317c3.435-3.435,5.327-8,5.327-12.857c0-4.857-1.892-9.422-5.327-12.855
				c-3.433-3.435-7.998-5.327-12.855-5.327s-9.422,1.892-12.857,5.327c-7.088,7.088-7.088,18.622,0,25.712
				C82.807,59.945,87.463,61.717,92.119,61.717z M84.976,36.401c1.91-1.908,4.445-2.959,7.144-2.959
				c2.697,0,5.234,1.052,7.142,2.959c1.908,1.907,2.959,4.445,2.959,7.142c0,2.699-1.052,5.234-2.959,7.144
				c-3.938,3.938-10.347,3.938-14.285,0C81.038,46.747,81.038,40.339,84.976,36.401z"/>
			<path d="M110.69,87.825c3.433,3.435,8,5.327,12.855,5.327c4.857,0,9.424-1.892,12.857-5.327c7.088-7.088,7.088-18.622,0-25.712
				c-7.086-7.091-18.626-7.091-25.712,0C103.601,69.204,103.601,80.737,110.69,87.825z M116.403,67.827
				c1.969-1.969,4.555-2.954,7.144-2.954c2.586,0,5.173,0.985,7.142,2.954c3.938,3.94,3.938,10.347,0,14.285
				c-3.813,3.813-10.468,3.817-14.285,0C112.465,78.174,112.465,71.766,116.403,67.827z"/>
			<path d="M142.117,119.253c3.433,3.437,7.998,5.327,12.855,5.327s9.422-1.89,12.857-5.327c7.088-7.088,7.088-18.624,0-25.712
				c-7.091-7.091-18.626-7.091-25.712,0c-3.435,3.433-5.327,8-5.327,12.857C136.791,111.253,138.682,115.82,142.117,119.253z
				 M147.831,99.254c1.969-1.969,4.555-2.954,7.142-2.954c2.587,0,5.175,0.985,7.144,2.954c3.938,3.938,3.938,10.347,0,14.285
				c-3.817,3.819-10.468,3.819-14.285,0c-1.908-1.908-2.959-4.445-2.959-7.142C144.871,103.699,145.923,101.162,147.831,99.254z"/>
			<path d="M173.543,124.966c-7.088,7.09-7.088,18.624,0,25.714c3.435,3.437,8,5.327,12.857,5.327c4.855,0,9.422-1.89,12.855-5.327
				c7.09-7.091,7.09-18.624,0-25.714C192.168,117.88,180.633,117.88,173.543,124.966z M193.542,144.967
				c-3.817,3.819-10.468,3.819-14.285,0c-3.938-3.938-3.938-10.35,0-14.287c1.969-1.969,4.557-2.952,7.144-2.952
				c2.587,0,5.173,0.983,7.142,2.952C197.479,134.618,197.479,141.03,193.542,144.967z"/>
		</g>
	</g>
</g>
</svg>